<?xml version="1.0" encoding="UTF-8"?>
<svg xmlns="http://www.w3.org/2000/svg" xmlns:xlink="http://www.w3.org/1999/xlink" width="52px" height="52px" viewBox="0 0 52 52" version="1.1">
<g id="surface1">
<path style=" stroke:none;fill-rule:nonzero;fill:rgb(0%,0%,0%);fill-opacity:1;" d="M 0 13 C 0 9.410156 2.910156 6.5 6.5 6.5 L 45.5 6.5 C 49.089844 6.5 52 9.410156 52 13 L 52 39 C 52 42.589844 49.089844 45.5 45.5 45.5 L 6.5 45.5 C 2.910156 45.5 0 42.589844 0 39 Z M 6.5 9.75 C 4.703125 9.75 3.25 11.203125 3.25 13 L 3.25 13.707031 L 26 27.355469 L 48.75 13.707031 L 48.75 13 C 48.75 11.203125 47.296875 9.75 45.5 9.75 Z M 48.75 17.496094 L 33.449219 26.675781 L 48.75 36.089844 Z M 48.640625 39.839844 L 30.308594 28.5625 L 26 31.144531 L 21.691406 28.5625 L 3.359375 39.839844 C 3.738281 41.261719 5.027344 42.25 6.5 42.25 L 45.5 42.25 C 46.972656 42.25 48.257812 41.261719 48.640625 39.839844 M 3.25 36.089844 L 18.550781 26.675781 L 3.25 17.496094 Z M 3.25 36.089844 "/>
</g>
</svg>
