<?xml version="1.0" encoding="utf-8"?>
<!-- Generator: Adobe Illustrator 25.3.1, SVG Export Plug-In . SVG Version: 6.00 Build 0)  -->
<svg version="1.1" id="Layer_1" xmlns="http://www.w3.org/2000/svg" xmlns:xlink="http://www.w3.org/1999/xlink" x="0px" y="0px"
	 viewBox="0 0 370.1 151" style="enable-background:new 0 0 370.1 151;" xml:space="preserve">
<style type="text/css">
	.st0{fill:#1D4C6C;}
	.st1{fill:#808285;}
	.st2{fill:#C73047;}
	.st3{fill:#26C2EB;}
</style>
<g>
	<g>
		<path class="st0" d="M76.3,93.5c3.1-1.8,5.1-4.6,5.7-7.1l12.2,0c-0.7,7.4-4.9,13.3-12.1,17.5c-13.1,7.5-26.2,3.4-32.8-8
			S45.8,71,57.9,64c11.2-6.4,24.4-2.6,31,9c0.9,1.6,1.7,3.2,2.2,4.8L64,93.5C67.8,96.6,72.1,95.9,76.3,93.5z M75.3,75.6
			c-3.8-3.7-8.1-3.3-11.6-1.4c-4.4,2.5-6,6.3-4.8,10.8L75.3,75.6z"/>
		<path class="st0" d="M120.9,106.5l-8.2-11.6l-8.2,11.6H89.3l15.8-22.4L89.8,62.4H105l7.7,10.9l7.7-10.9h15.2l-15.3,21.7l15.8,22.4
			H120.9z"/>
		<path class="st0" d="M160.8,75.1V62.4h-9.1V50l-13.2,4v36.7c0,12.3,5,17.6,22.3,15.8v-12c-5.8,0.4-9.1,0-9.1-3.8V75.1H160.8z"/>
		<path class="st0" d="M193.9,61.5v15c-5.5-0.9-13.2,1.3-13.2,10.1v19.9h-13.2V62.4h13.2v7.9C182.4,64.3,188.3,61.5,193.9,61.5z"/>
		<path class="st0" d="M242.9,62.4v44.1h-13.2v-4.1c-2.9,3.4-7.2,5.4-13.1,5.4c-11.6,0-21.1-10.1-21.1-23.3s9.5-23.3,21.1-23.3
			c5.9,0,10.2,2,13.1,5.4v-4.1L242.9,62.4L242.9,62.4z M229.7,84.4c0-6.6-4.4-10.8-10.5-10.8c-6.1,0-10.5,4.1-10.5,10.8
			c0,6.6,4.4,10.8,10.5,10.8C225.3,95.2,229.7,91,229.7,84.4z"/>
		<path class="st0" d="M257.7,42.1h13.2v64.4h-13.2V42.1z"/>
		<path class="st0" d="M276.2,50.6c0-4.3,3.6-7.9,7.9-7.9s7.9,3.6,7.9,7.9s-3.6,7.9-7.9,7.9C279.8,58.5,276.2,54.9,276.2,50.6z
			 M277.5,62.4h13.2v44.1h-13.2V62.4z"/>
		<path class="st0" d="M318.8,56.2V43.5c-14.6-0.9-21.4,6.5-21.4,18.9v44.1h13.2V75.1h8.2V62.4h-8.2
			C310.6,57.3,313.9,55.8,318.8,56.2z"/>
		<path class="st0" d="M350.3,93.5c3.1-1.8,5.1-4.6,5.7-7.1l12.2,0c-0.7,7.4-4.9,13.3-12.1,17.5c-13.1,7.5-26.2,3.4-32.8-8
			S319.8,71,331.9,64c11.2-6.4,24.4-2.6,31,9c0.9,1.6,1.7,3.2,2.2,4.8L338,93.5C341.7,96.6,346.1,95.9,350.3,93.5z M349.3,75.6
			c-3.8-3.7-8.1-3.3-11.6-1.4c-4.4,2.5-6,6.3-4.8,10.8L349.3,75.6z"/>
	</g>
	<g>
		<path class="st1" d="M53.7,121.3v7.2h-0.9v-1.4c-0.6,1-1.6,1.6-2.9,1.6c-2,0-3.7-1.6-3.7-3.8s1.7-3.8,3.7-3.8
			c1.3,0,2.3,0.6,2.9,1.6v-1.4L53.7,121.3L53.7,121.3z M52.7,124.9c0-1.6-1.2-2.9-2.8-2.9c-1.6,0-2.8,1.3-2.8,2.9
			c0,1.6,1.2,2.9,2.8,2.9C51.5,127.7,52.7,126.5,52.7,124.9z"/>
		<path class="st1" d="M66.9,124.9c0,2.1-1.7,3.8-3.7,3.8c-1.3,0-2.3-0.6-2.9-1.6v4.3h-0.9v-10.1h0.9v1.4c0.6-1,1.6-1.6,2.9-1.6
			C65.2,121.1,66.9,122.8,66.9,124.9z M65.9,124.9c0-1.6-1.2-2.9-2.8-2.9c-1.6,0-2.8,1.3-2.8,2.9c0,1.6,1.2,2.9,2.8,2.9
			C64.7,127.7,65.9,126.5,65.9,124.9z"/>
		<path class="st1" d="M71.7,121.2v0.9c-1.2,0-2.3,0.6-2.3,2.4v4h-0.9v-7.2h0.9v1.2C69.9,121.5,70.8,121.2,71.7,121.2z"/>
		<path class="st1" d="M72.1,124.9c0-2.1,1.7-3.8,3.8-3.8s3.8,1.6,3.8,3.8s-1.7,3.8-3.8,3.8S72.1,127,72.1,124.9z M78.8,124.9
			c0-1.6-1.2-2.9-2.8-2.9c-1.6,0-2.8,1.3-2.8,2.9c0,1.6,1.2,2.9,2.8,2.9C77.5,127.7,78.8,126.5,78.8,124.9z"/>
		<path class="st1" d="M88.4,121.3v6.9c0,2.2-1.8,3.3-3.6,3.3c-1.7,0-2.9-0.6-3.4-1.8l0.8-0.5c0.4,0.7,1,1.3,2.6,1.3
			c1.7,0,2.7-0.9,2.7-2.4v-1.1c-0.6,1-1.6,1.6-2.9,1.6c-2,0-3.7-1.6-3.7-3.8s1.7-3.8,3.7-3.8c1.3,0,2.3,0.6,2.9,1.6v-1.4L88.4,121.3
			L88.4,121.3z M87.5,124.9c0-1.6-1.2-2.9-2.8-2.9c-1.6,0-2.8,1.3-2.8,2.9c0,1.6,1.2,2.9,2.8,2.9C86.2,127.7,87.5,126.5,87.5,124.9z
			"/>
		<path class="st1" d="M93.7,121.2v0.9c-1.2,0-2.3,0.6-2.3,2.4v4h-0.9v-7.2h0.9v1.2C91.9,121.5,92.8,121.2,93.7,121.2z"/>
		<path class="st1" d="M101.7,121.3v7.2h-0.9v-1.4c-0.6,1-1.6,1.6-2.9,1.6c-2,0-3.7-1.6-3.7-3.8s1.7-3.8,3.7-3.8
			c1.3,0,2.3,0.6,2.9,1.6v-1.4L101.7,121.3L101.7,121.3z M100.7,124.9c0-1.6-1.2-2.9-2.8-2.9c-1.6,0-2.8,1.3-2.8,2.9
			c0,1.6,1.2,2.9,2.8,2.9C99.5,127.7,100.7,126.5,100.7,124.9z"/>
		<path class="st1" d="M114.1,124v4.5h-0.9V124c0-1.3-0.7-2-1.8-2c-1.1,0-2,0.7-2,2.5v4h-0.9V124c0-1.3-0.7-2-1.7-2
			c-1,0-2.1,0.7-2.1,2.5v4h-0.9v-7.2h0.9v1.1c0.6-0.9,1.3-1.2,2.2-1.2c1,0,1.8,0.5,2.2,1.3c0.5-0.9,1.4-1.3,2.3-1.3
			C113,121.1,114.1,122.2,114.1,124z"/>
		<path class="st1" d="M119.1,124.9c0-2.1,1.7-3.8,3.8-3.8s3.8,1.6,3.8,3.8s-1.7,3.8-3.8,3.8S119.1,127,119.1,124.9z M125.7,124.9
			c0-1.6-1.2-2.9-2.8-2.9c-1.6,0-2.8,1.3-2.8,2.9c0,1.6,1.2,2.9,2.8,2.9C124.5,127.7,125.7,126.5,125.7,124.9z"/>
		<path class="st1" d="M129.5,121v0.3h2.1v0.9h-2.1v6.3h-0.9v-6.3h-1.2v-0.9h1.2V121c0-1.9,1.1-2.9,3-2.8v0.9
			C130.2,119,129.5,119.6,129.5,121z"/>
		<path class="st2" d="M46,140.6c0-3,2.2-5.2,5.2-5.2c1.8,0,3.4,0.9,4.3,2.3l-2,1.2c-0.4-0.8-1.3-1.2-2.3-1.2c-1.8,0-2.9,1.2-2.9,3
			c0,1.8,1.2,3,2.9,3c1,0,1.9-0.5,2.3-1.2l2,1.2c-0.9,1.4-2.5,2.3-4.3,2.3C48.2,145.9,46,143.6,46,140.6z"/>
		<path class="st2" d="M63.6,141.2v4.4h-2.2v-4.1c0-0.9-0.6-1.3-1.3-1.3c-0.8,0-1.3,0.5-1.3,1.5v3.9h-2.2v-10.1h2.2v3.6
			c0.4-0.5,1.1-0.9,2.1-0.9C62.4,138.3,63.6,139.3,63.6,141.2z"/>
		<path class="st2" d="M64.9,136.5c0-0.7,0.6-1.3,1.3-1.3c0.7,0,1.3,0.6,1.3,1.3s-0.6,1.3-1.3,1.3C65.5,137.8,64.9,137.2,64.9,136.5
			z M65.1,138.5h2.2v7.2h-2.2V138.5z"/>
		<path class="st2" d="M68.8,135.1H71v10.5h-2.2V135.1z"/>
		<path class="st2" d="M80,135.6v10.1h-2.2V145c-0.5,0.6-1.2,0.9-2.2,0.9c-1.9,0-3.4-1.7-3.4-3.8c0-2.1,1.6-3.8,3.4-3.8
			c1,0,1.7,0.3,2.2,0.9v-3.6L80,135.6L80,135.6z M77.8,142.1c0-1.1-0.7-1.8-1.7-1.8s-1.7,0.7-1.7,1.8c0,1.1,0.7,1.8,1.7,1.8
			S77.8,143.2,77.8,142.1z"/>
		<path class="st2" d="M85.9,138.3v2.4c-0.9-0.1-2.2,0.2-2.2,1.6v3.3h-2.2v-7.2h2.2v1.3C84,138.8,85,138.3,85.9,138.3z"/>
		<path class="st2" d="M90.3,143.9c0.6,0,1.1-0.2,1.4-0.6l1.7,1c-0.7,1-1.8,1.5-3.1,1.5c-2.5,0-4-1.7-4-3.8c0-2.1,1.6-3.8,3.8-3.8
			c2.1,0,3.7,1.6,3.7,3.8c0,0.3,0,0.6-0.1,0.9h-5.1C88.9,143.7,89.5,143.9,90.3,143.9z M91.6,141.3c-0.2-0.8-0.9-1.1-1.5-1.1
			c-0.8,0-1.4,0.4-1.6,1.1H91.6z"/>
		<path class="st2" d="M101.9,141.2v4.4h-2.2v-4.1c0-0.9-0.6-1.3-1.3-1.3c-0.8,0-1.3,0.5-1.3,1.5v3.9H95v-7.2h2.2v0.7
			c0.4-0.5,1.1-0.9,2.1-0.9C100.7,138.3,101.9,139.3,101.9,141.2z"/>
		<path class="st2" d="M104.3,139.8h-1.7l0.6-4.3h2.3L104.3,139.8z"/>
		<path class="st2" d="M111,143.5c0,1.7-1.4,2.4-3,2.4c-1.4,0-2.5-0.6-3.1-1.7l1.9-1.1c0.2,0.6,0.6,0.8,1.2,0.8
			c0.5,0,0.8-0.2,0.8-0.4c0-0.8-3.5-0.4-3.5-2.9c0-1.6,1.3-2.4,2.8-2.4c1.2,0,2.2,0.5,2.8,1.5l-1.8,1c-0.2-0.4-0.5-0.6-1-0.6
			c-0.4,0-0.6,0.1-0.6,0.4C107.5,141.4,111,140.8,111,143.5z"/>
		<path class="st2" d="M125.9,145.7h-2.3v-5.9l-2.6,4.3h-0.3l-2.6-4.3v5.9h-2.3v-10.1h2.3l2.7,4.5l2.7-4.5h2.3L125.9,145.7
			L125.9,145.7z"/>
		<path class="st2" d="M127.4,136.5c0-0.7,0.6-1.3,1.3-1.3c0.7,0,1.3,0.6,1.3,1.3s-0.6,1.3-1.3,1.3
			C128,137.8,127.4,137.2,127.4,136.5z M127.6,138.5h2.2v7.2h-2.2V138.5z"/>
		<path class="st2" d="M135.7,138.3v2.4c-0.9-0.1-2.2,0.2-2.2,1.6v3.3h-2.2v-7.2h2.2v1.3C133.8,138.8,134.7,138.3,135.7,138.3z"/>
		<path class="st2" d="M143.8,138.5v7.2h-2.2V145c-0.5,0.6-1.2,0.9-2.2,0.9c-1.9,0-3.4-1.7-3.4-3.8c0-2.1,1.6-3.8,3.4-3.8
			c1,0,1.7,0.3,2.2,0.9v-0.7L143.8,138.5L143.8,138.5z M141.7,142.1c0-1.1-0.7-1.8-1.7-1.8s-1.7,0.7-1.7,1.8c0,1.1,0.7,1.8,1.7,1.8
			S141.7,143.2,141.7,142.1z"/>
		<path class="st2" d="M145.1,142.1c0-2.2,1.6-3.8,3.8-3.8c1.4,0,2.6,0.7,3.3,1.8l-1.9,1.1c-0.2-0.5-0.8-0.8-1.4-0.8
			c-0.9,0-1.6,0.7-1.6,1.7s0.7,1.7,1.6,1.7c0.6,0,1.2-0.3,1.4-0.8l1.9,1.1c-0.6,1.1-1.8,1.9-3.3,1.9
			C146.7,145.9,145.1,144.2,145.1,142.1z"/>
		<path class="st2" d="M153,135.1h2.2v10.5H153V135.1z"/>
		<path class="st2" d="M160.4,143.9c0.6,0,1.1-0.2,1.4-0.6l1.7,1c-0.7,1-1.8,1.5-3.1,1.5c-2.5,0-4-1.7-4-3.8c0-2.1,1.6-3.8,3.8-3.8
			c2.1,0,3.7,1.6,3.7,3.8c0,0.3,0,0.6-0.1,0.9h-5.1C159,143.7,159.6,143.9,160.4,143.9z M161.7,141.3c-0.2-0.8-0.9-1.1-1.5-1.1
			c-0.8,0-1.4,0.4-1.6,1.1H161.7z"/>
		<path class="st2" d="M176.7,135.6v10.1H175l-3.9-5.5v5.5h-2.3v-10.1h1.7l3.9,5.5v-5.5H176.7z"/>
		<path class="st2" d="M182,143.9c0.6,0,1.1-0.2,1.4-0.6l1.7,1c-0.7,1-1.8,1.5-3.1,1.5c-2.5,0-4-1.7-4-3.8c0-2.1,1.6-3.8,3.8-3.8
			c2.1,0,3.7,1.6,3.7,3.8c0,0.3,0,0.6-0.1,0.9h-5.1C180.6,143.7,181.2,143.9,182,143.9z M183.3,141.3c-0.2-0.8-0.9-1.1-1.5-1.1
			c-0.8,0-1.4,0.4-1.6,1.1H183.3z"/>
		<path class="st2" d="M189.2,140.5v2.5c0,0.6,0.5,0.7,1.5,0.6v2c-2.8,0.3-3.6-0.6-3.6-2.6v-2.5h-1.2v-2.1h1.2v-1.4l2.2-0.7v2h1.5
			v2.1L189.2,140.5L189.2,140.5z"/>
		<path class="st2" d="M202.3,138.5l-2.3,7.2h-2l-1.2-3.8l-1.2,3.8h-2l-2.3-7.2h2.3l1,3.9l1.1-3.9h2l1.1,3.9l1-3.9H202.3z"/>
		<path class="st2" d="M202.5,142.1c0-2.2,1.7-3.8,3.8-3.8c2.1,0,3.8,1.7,3.8,3.8c0,2.1-1.7,3.8-3.8,3.8
			C204.2,145.9,202.5,144.2,202.5,142.1z M208,142.1c0-1-0.7-1.7-1.7-1.7s-1.7,0.7-1.7,1.7s0.7,1.7,1.7,1.7S208,143.1,208,142.1z"/>
		<path class="st2" d="M215.7,138.3v2.4c-0.9-0.1-2.2,0.2-2.2,1.6v3.3h-2.2v-7.2h2.2v1.3C213.8,138.8,214.8,138.3,215.7,138.3z"/>
		<path class="st2" d="M221.2,145.7l-2.3-3.2v3.2h-2.2v-10.1h2.2v6l2.2-3.2h2.5l-2.6,3.6l2.7,3.6L221.2,145.7L221.2,145.7z"/>
		<path class="st2" d="M235.9,135.6v10.1h-2.3v-4h-3.2v4h-2.3v-10.1h2.3v3.9h3.2v-3.9H235.9z"/>
		<path class="st2" d="M237.2,142.1c0-2.2,1.7-3.8,3.8-3.8s3.8,1.7,3.8,3.8c0,2.1-1.7,3.8-3.8,3.8S237.2,144.2,237.2,142.1z
			 M242.6,142.1c0-1-0.7-1.7-1.7-1.7c-0.9,0-1.7,0.7-1.7,1.7s0.7,1.7,1.7,1.7C241.9,143.8,242.6,143.1,242.6,142.1z"/>
		<path class="st2" d="M251.5,143.5c0,1.7-1.4,2.4-3,2.4c-1.4,0-2.5-0.6-3.1-1.7l1.9-1.1c0.2,0.6,0.6,0.8,1.2,0.8
			c0.5,0,0.8-0.2,0.8-0.4c0-0.8-3.5-0.4-3.5-2.9c0-1.6,1.3-2.4,2.8-2.4c1.2,0,2.2,0.5,2.8,1.5l-1.8,1c-0.2-0.4-0.5-0.6-1-0.6
			c-0.4,0-0.6,0.1-0.6,0.4C247.9,141.4,251.5,140.8,251.5,143.5z"/>
		<path class="st2" d="M260.4,142.1c0,2.2-1.6,3.8-3.4,3.8c-1,0-1.7-0.3-2.2-0.9v3.6h-2.2v-10.1h2.2v0.7c0.5-0.6,1.2-0.9,2.2-0.9
			C258.8,138.3,260.4,139.9,260.4,142.1z M258.2,142.1c0-1.1-0.7-1.8-1.7-1.8c-1,0-1.7,0.7-1.7,1.8c0,1.1,0.7,1.8,1.7,1.8
			C257.5,143.8,258.2,143.2,258.2,142.1z"/>
		<path class="st2" d="M261.4,136.5c0-0.7,0.6-1.3,1.3-1.3c0.7,0,1.3,0.6,1.3,1.3s-0.6,1.3-1.3,1.3
			C262,137.8,261.4,137.2,261.4,136.5z M261.6,138.5h2.2v7.2h-2.2V138.5z"/>
		<path class="st2" d="M268.1,140.5v2.5c0,0.6,0.5,0.7,1.5,0.6v2c-2.8,0.3-3.6-0.6-3.6-2.6v-2.5h-1.2v-2.1h1.2v-1.4l2.2-0.7v2h1.5
			v2.1L268.1,140.5L268.1,140.5z"/>
		<path class="st2" d="M278.1,138.5v7.2h-2.2V145c-0.5,0.6-1.2,0.9-2.2,0.9c-1.9,0-3.4-1.7-3.4-3.8c0-2.1,1.6-3.8,3.4-3.8
			c1,0,1.7,0.3,2.2,0.9v-0.7L278.1,138.5L278.1,138.5z M275.9,142.1c0-1.1-0.7-1.8-1.7-1.8c-1,0-1.7,0.7-1.7,1.8
			c0,1.1,0.7,1.8,1.7,1.8C275.2,143.8,275.9,143.2,275.9,142.1z"/>
		<path class="st2" d="M279.6,135.1h2.2v10.5h-2.2V135.1z"/>
		<path class="st2" d="M288.9,143.5c0,1.7-1.4,2.4-3,2.4c-1.4,0-2.5-0.6-3.1-1.7l1.9-1.1c0.2,0.6,0.6,0.8,1.2,0.8
			c0.5,0,0.8-0.2,0.8-0.4c0-0.8-3.5-0.4-3.5-2.9c0-1.6,1.3-2.4,2.8-2.4c1.2,0,2.2,0.5,2.8,1.5l-1.8,1c-0.2-0.4-0.5-0.6-1-0.6
			c-0.4,0-0.6,0.1-0.6,0.4C285.4,141.4,288.9,140.8,288.9,143.5z"/>
	</g>
	<g>
		<g>
			<path class="st3" d="M110.1,29.9l-1-11.4c-0.2-2.5-2.5-4.4-5-4.2l-11.4,1c-2.5,0.2-4.4,2.5-4.2,5l0.5,5.7c-0.1,0-0.1,0.1-0.2,0.2
				l-8.8,7.4c-0.9,0.8-1.5,1.9-1.6,3.1c-0.1,1.2,0.3,2.4,1.1,3.4l7.4,8.8c1.3,1.5,3.3,2,5.1,1.4c0.5-0.2,1-0.4,1.4-0.8l8.8-7.4
				c1.9-1.6,2.2-4.5,0.6-6.5l-0.2-0.3l3.5-0.3c0.4,0,0.8-0.1,1.2-0.3C109,33.9,110.2,32,110.1,29.9z M99.1,23.2
				c1.1-0.1,2,0.7,2.1,1.7c0.1,1.1-0.7,2-1.7,2.1c-1.1,0.1-2-0.7-2.1-1.7C97.2,24.2,98,23.3,99.1,23.2z M93.9,18.8
				c1.1-0.1,2,0.7,2.1,1.7c0.1,1.1-0.7,2-1.7,2.1c-1.1,0.1-2-0.7-2.1-1.7C92.1,19.8,92.8,18.9,93.9,18.8z M101,40.8l-8.8,7.4
				c-1.3,1.1-3.2,0.9-4.3-0.4L80.5,39c-0.5-0.6-0.8-1.4-0.7-2.2s0.5-1.5,1.1-2.1l8.8-7.4c0.3-0.2,0.6-0.4,0.9-0.5
				c1.2-0.4,2.5-0.1,3.4,0.9l7.4,8.8C102.5,37.8,102.3,39.7,101,40.8z M104.6,31.3c-1.1,0.1-2-0.7-2.1-1.7c-0.1-1.1,0.7-2,1.7-2.1
				c1.1-0.1,2,0.7,2.1,1.7C106.4,30.3,105.7,31.2,104.6,31.3z"/>
		</g>
		<g>
			<path class="st3" d="M85.7,35.9C85,35.1,83.8,35,83,35.7c-0.8,0.7-0.9,1.9-0.2,2.7c0.7,0.8,1.9,0.9,2.7,0.2
				C86.3,37.9,86.4,36.7,85.7,35.9z"/>
		</g>
		<g>
			<path class="st3" d="M88.8,39.6c-0.7-0.8-1.9-0.9-2.7-0.2c-0.8,0.7-0.9,1.9-0.2,2.7c0.7,0.8,1.9,0.9,2.7,0.2
				C89.3,41.6,89.5,40.4,88.8,39.6z"/>
		</g>
		<g>
			<path class="st3" d="M89.1,43c-0.8,0.7-0.9,1.9-0.2,2.7c0.7,0.8,1.9,0.9,2.7,0.2c0.8-0.7,0.9-1.9,0.2-2.7
				C91.2,42.4,90,42.3,89.1,43z"/>
		</g>
		<g>
			<path class="st3" d="M92.8,32.4c0.8-0.7,0.9-1.9,0.2-2.7c-0.7-0.8-1.9-0.9-2.7-0.2c-0.8,0.7-0.9,1.9-0.2,2.7
				C90.8,33,92,33.1,92.8,32.4z"/>
		</g>
		<g>
			<path class="st3" d="M96.1,33.4c-0.7-0.8-1.9-0.9-2.7-0.2c-0.8,0.7-0.9,1.9-0.2,2.7c0.7,0.8,1.9,0.9,2.7,0.2
				C96.7,35.4,96.8,34.2,96.1,33.4z"/>
		</g>
		<g>
			<path class="st3" d="M96.5,36.8c-0.8,0.7-0.9,1.9-0.2,2.7c0.7,0.8,1.9,0.9,2.7,0.2c0.8-0.7,0.9-1.9,0.2-2.7
				C98.5,36.3,97.3,36.2,96.5,36.8z"/>
		</g>
		<g>
			<path class="st3" d="M71.8,34.3c7.5-5.4,13.7-14,11-15.3c-1,1.2-4.5,5.2-8.7,7.8c0,0,5.1-4.4,7.7-7.9c2.3-3,3.8-7.4,1.6-7.8
				c-1.9,2.3-6.3,7.4-9.8,9.6c0,0,3.9-4,8.4-9.5c2.1-2.3,6.3-10.7,1.9-8.3c-10.3,5.5-20.9,17.3-18,18.8c2.2,1.2,5.8,5.9,4.6,10.9
				c-3.6-4.4-6.8-6.6-9.7-6.4c-1.2,0.1-2.2,0.3-3.3,0.7c-1.8,0.7-3.2,1.7-4.5,2.7c-1.3,1-2.5,2-4.3,2.6c-1.8,0.6-3.3,0.7-4.9,0.7
				c-1.6,0-3.3,0.1-5.2,0.8c-1,0.4-2,0.9-2.9,1.6c-2.3,1.7-3.4,5.4-3.3,11.1c-4.1-3-4.4-8.9-3.5-11.3c1.2-3-14.5-5.2-25.9-2.8
				c-4.9,1,3.7,4.6,6.8,5.1c6.9,1.3,12.5,1.8,12.5,1.8c-4.1,0.6-10.8-0.5-13.7-1c-1.4,1.7,2.6,4.1,6.3,5c4.3,1,11,1.1,11,1.1
				c-4.9,0.8-10.1,0-11.7-0.3c-1.2,2.8,9.1,5.4,18.3,4.7c0.3,4.8,1.3,9.8,2.2,12.1c1,3,2.6,4.4,3.8,5c1.4,0.7,2.9,0.7,4.4,0.2
				c1.9-0.7,3.6-2.3,4.9-4.6c2.4-3.8,4.6-6.9,8.6-8.3c4-1.5,7.7-0.5,12,0.9c2.4,1,4.8,1.1,6.7,0.4c1.5-0.5,2.6-1.6,3.2-3
				c0.5-1.2,0.9-3.3-0.3-6.2C77.1,42.6,74.7,38.1,71.8,34.3z M74.5,52.7c-1.5,0.5-3.5,0.4-5.6-0.4c-4.1-1.3-8.3-2.6-13-0.9
				c-4.7,1.7-7.1,5.4-9.4,9c-1.1,2.1-2.6,3.4-4,3.9c-2.4,0.9-5-0.4-6.2-4.2c-1.6-4.5-4.2-20.3,0.5-23.7c0.9-0.6,1.7-1.1,2.5-1.4
				c3.3-1.2,6.2-0.1,10.1-1.5c3.9-1.4,5.4-4.1,8.7-5.3c0.8-0.3,1.7-0.5,2.8-0.6c5.8-0.4,14,13.4,15.6,17.9
				C78.1,49.2,77,51.8,74.5,52.7z"/>
		</g>
		<g>
			<path class="st3" d="M62.5,40.7C62.5,40.7,62.5,40.7,62.5,40.7c-0.9,0.4-1.4,1.4-1.1,2.3c0.3,0.9,1.4,1.4,2.3,1.1c0,0,0,0,0,0
				c0.9-0.3,1.4-1.4,1.1-2.3C64.5,40.9,63.5,40.4,62.5,40.7z"/>
		</g>
		<g>
			<path class="st3" d="M61.4,37.5c0.9-0.3,1.4-1.4,1.1-2.3c-0.3-0.9-1.4-1.4-2.3-1.1c0,0,0,0,0,0c-0.9,0.3-1.4,1.4-1.1,2.3
				C59.4,37.4,60.4,37.9,61.4,37.5L61.4,37.5z"/>
		</g>
		<g>
			<path class="st3" d="M58,38.6C58,38.6,58,38.6,58,38.6C57.1,39,56.6,40,56.9,41c0.3,0.9,1.4,1.4,2.3,1.1c0,0,0,0,0,0
				c0.9-0.3,1.4-1.4,1.1-2.3C60,38.8,59,38.3,58,38.6z"/>
		</g>
		<g>
			<path class="st3" d="M64.6,36.2L64.6,36.2c-0.9,0.4-1.4,1.4-1.1,2.3c0.3,0.9,1.4,1.4,2.3,1.1c0,0,0,0,0,0
				c0.9-0.3,1.4-1.4,1.1-2.3C66.6,36.4,65.6,35.9,64.6,36.2z"/>
		</g>
		<g>
			<path class="st3" d="M47.1,43.4c0-0.1-0.1-0.2-0.2-0.2c-0.1,0-0.2,0-0.3,0l-2.5,0.9l-0.9-2.5c0-0.1-0.1-0.2-0.2-0.2
				c-0.1,0-0.2,0-0.3,0l-1,0.4l-1,0.4c-0.1,0-0.2,0.1-0.2,0.2c0,0.1,0,0.2,0,0.3l0.9,2.5L39,46c-0.1,0-0.2,0.1-0.2,0.2
				c0,0.1,0,0.2,0,0.3l0.7,2c0,0.1,0.1,0.2,0.2,0.2c0.1,0,0.2,0,0.3,0l2.5-0.9l0.9,2.5c0,0.1,0.1,0.2,0.2,0.2c0.1,0,0.2,0,0.3,0
				l1-0.4l1-0.4c0.1,0,0.2-0.1,0.2-0.2c0-0.1,0-0.2,0-0.3l-0.9-2.5l2.5-0.9c0.1,0,0.2-0.1,0.2-0.2c0-0.1,0-0.2,0-0.3L47.1,43.4z"/>
		</g>
		<g>
			<path class="st3" d="M36.6,29.2c2.9-0.3,6.6-1.1,10.3-2.5c3.7-1.4,7.1-3,9.5-4.7c3-2.1,4.2-4,3.6-5.8c-0.6-1.7-2.8-2.4-6.5-2.1
				c-2.9,0.3-6.6,1.1-10.3,2.5s-7.1,3-9.5,4.7c-3,2.1-4.2,4-3.6,5.8C30.8,28.8,32.9,29.5,36.6,29.2z M43.7,18.1
				c7.4-2.7,14-3.3,14.7-1.3s-4.7,5.8-12.1,8.5s-14,3.3-14.7,1.3C30.9,24.6,36.3,20.8,43.7,18.1z"/>
		</g>
	</g>
</g>
</svg>
